<?xml version="1.0" encoding="UTF-8"?>
<svg width="48px" height="48px" viewBox="0 0 48 48" xmlns="http://www.w3.org/2000/svg">
    <defs>
        <linearGradient id="grad1" x1="0%" y1="0%" x2="100%" y2="100%">
            <stop offset="0%" style="stop-color:#fbbf24;stop-opacity:1" />
            <stop offset="100%" style="stop-color:#f59e0b;stop-opacity:1" />
        </linearGradient>
    </defs>
    <path d="M24 3.2l2.6 5.2 8.4.6-6 8.3 2.6 5.2 5.4-8.3-8.4-.6-6 8.3-6-8.3 5.4-8.3-2.6-5.2-8.4.6 6-8.3z" fill="url(#grad1)"/>
    <path d="M24 3.2l2.6 5.2 8.4.6-6 8.3 2.6 5.2 5.4-8.3-8.4-.6-6 8.3-6-8.3 5.4-8.3-2.6-5.2-8.4.6 6-8.3z" fill="url(#grad1)" transform="translate(12 0)"/>
    <path d="M24 3.2l2.6 5.2 8.4.6-6 8.3 2.6 5.2 5.4-8.3-8.4-.6-6 8.3-6-8.3 5.4-8.3-2.6-5.2-8.4.6 6-8.3z" fill="url(#grad1)" transform="translate(24 0)"/>
</svg>
