<?xml version="1.0" encoding="UTF-8"?>
<svg width="48px" height="48px" viewBox="0 0 48 48" xmlns="http://www.w3.org/2000/svg">
    <defs>
        <linearGradient id="grad1" x1="0%" y1="0%" x2="100%" y2="100%">
            <stop offset="0%" style="stop-color:#25D366;stop-opacity:1" />
            <stop offset="100%" style="stop-color:#25D366;stop-opacity:1" />
        </linearGradient>
    </defs>
    <path d="M24 0C10.745 0 0 10.745 0 24s10.745 24 24 24 24-10.745 24-24S37.255 0 24 0zm0 48C10.745 48 0 37.255 0 24S10.745 0 24 0s24 10.745 24 24-10.745 24-24 24z" fill="url(#grad1)"/>
    <path d="M32 16c0-4.418-3.582-8-8-8s-8 3.582-8 8c0 1.818.77 3.485 2 4.818l-7.586 7.586c-.39.39-.39 1.023 0 1.414l1.414 1.414c.39.39 1.023.39 1.414 0l7.586-7.586c1.333.77 2.8 1.2 4.818 1.2 4.418 0 8-3.582 8-8z" fill="#fff"/>
</svg>
