<svg xmlns="http://www.w3.org/2000/svg" viewBox="0 0 500 300">
  <style>
    .st0{fill:#f8f9fa;}
    .st1{fill:#007bff;}
    .st2{fill:#6c757d;}
    .st3{fill:none;stroke:#007bff;stroke-width:2;stroke-linecap:round;stroke-linejoin:round;}
  </style>
  <rect class="st0" width="500" height="300" rx="10"/>
  <g transform="translate(100, 50)">
    <!-- 4 -->
    <path class="st1" d="M30,0 L30,100 L70,100 L70,60 L120,60 L120,100 L160,100 L160,0 L120,0 L120,20 L70,20 L70,0 Z"/>
    
    <!-- 0 -->
    <path class="st1" d="M200,20 C200,8.954 208.954,0 220,0 L260,0 C271.046,0 280,8.954 280,20 L280,80 C280,91.046 271.046,100 260,100 L220,100 C208.954,100 200,91.046 200,80 Z M240,20 L240,80 L260,80 L260,20 Z"/>
    
    <!-- 4 -->
    <path class="st1" d="M320,0 L320,100 L360,100 L360,60 L410,60 L410,100 L450,100 L450,0 L410,0 L410,20 L360,20 L360,0 Z"/>
  </g>
  
  <!-- Decorative elements -->
  <circle class="st2" cx="50" cy="250" r="10" opacity="0.5"/>
  <circle class="st2" cx="450" cy="50" r="15" opacity="0.5"/>
  <circle class="st2" cx="100" cy="100" r="8" opacity="0.5"/>
  <circle class="st2" cx="400" cy="200" r="12" opacity="0.5"/>
  
  <!-- Search icon -->
  <g transform="translate(50, 150)">
    <circle class="st3" cx="30" cy="30" r="20"/>
    <line class="st3" x1="60" y1="60" x2="80" y2="80"/>
  </g>
</svg> 