<svg xmlns="http://www.w3.org/2000/svg" viewBox="0 0 500 300">
  <style>
    .st0{fill:#f8f9fa;}
    .st1{fill:#007bff;}
    .st2{fill:#6c757d;}
    .st3{fill:none;stroke:#007bff;stroke-width:2;stroke-linecap:round;stroke-linejoin:round;}
  </style>
  <rect class="st0" width="500" height="300" rx="10"/>
  <g transform="translate(100, 50)">
    <!-- 5 -->
    <path class="st1" d="M30,0 L160,0 L160,20 L70,20 L70,40 L140,40 L140,60 L70,60 L70,80 L160,80 L160,100 L30,100 Z"/>
    
    <!-- 0 -->
    <path class="st1" d="M200,20 C200,8.954 208.954,0 220,0 L260,0 C271.046,0 280,8.954 280,20 L280,80 C280,91.046 271.046,100 260,100 L220,100 C208.954,100 200,91.046 200,80 Z M240,20 L240,80 L260,80 L260,20 Z"/>
    
    <!-- 0 -->
    <path class="st1" d="M320,20 C320,8.954 328.954,0 340,0 L380,0 C391.046,0 400,8.954 400,20 L400,80 C400,91.046 391.046,100 380,100 L340,100 C328.954,100 320,91.046 320,80 Z M360,20 L360,80 L380,80 L380,20 Z"/>
  </g>
  
  <!-- Server icon -->
  <g transform="translate(50, 150)">
    <rect class="st3" x="20" y="20" width="60" height="40" rx="5"/>
    <rect class="st3" x="30" y="30" width="40" height="5"/>
    <rect class="st3" x="30" y="45" width="40" height="5"/>
    <line class="st3" x1="50" y1="70" x2="50" y2="90"/>
    <line class="st3" x1="40" y1="80" x2="60" y2="80"/>
  </g>
  
  <!-- Decorative elements -->
  <circle class="st2" cx="450" cy="50" r="15" opacity="0.5"/>
  <circle class="st2" cx="100" cy="100" r="8" opacity="0.5"/>
  <circle class="st2" cx="400" cy="200" r="12" opacity="0.5"/>
  <circle class="st2" cx="50" cy="250" r="10" opacity="0.5"/>
</svg> 