<?xml version="1.0" encoding="UTF-8" standalone="no"?>
<svg xmlns="http://www.w3.org/2000/svg" viewBox="0 0 800 600">
  <style>
    .st0{fill:#f8f9fa;}
    .st1{fill:#007bff;}
    .st2{fill:#6c757d;}
    .st3{fill:none;stroke:#007bff;stroke-width:2;stroke-linecap:round;stroke-linejoin:round;}
    .st4{fill:#ffffff;}
    .st5{fill:#e9ecef;}
  </style>
  
  <!-- Browser window -->
  <rect class="st0" x="50" y="50" width="700" height="500" rx="10"/>
  
  <!-- Browser header -->
  <rect class="st5" x="50" y="50" width="700" height="40" rx="10 10 0 0"/>
  
  <!-- Browser buttons -->
  <circle class="st2" cx="80" cy="70" r="5" opacity="0.5"/>
  <circle class="st2" cx="100" cy="70" r="5" opacity="0.5"/>
  <circle class="st2" cx="120" cy="70" r="5" opacity="0.5"/>
  
  <!-- URL bar -->
  <rect class="st4" x="150" y="65" width="500" height="20" rx="5"/>
  <rect class="st2" x="160" y="70" width="200" height="10" rx="2" opacity="0.3"/>
  
  <!-- Website content -->
  <rect class="st4" x="70" y="120" width="660" height="400" rx="5"/>
  
  <!-- Header -->
  <rect class="st1" x="70" y="120" width="660" height="60" rx="5 5 0 0"/>
  <rect class="st4" x="90" y="140" width="200" height="20" rx="2"/>
  <rect class="st4" x="500" y="140" width="100" height="20" rx="2"/>
  <rect class="st4" x="620" y="140" width="80" height="20" rx="2"/>
  
  <!-- Hero section -->
  <rect class="st5" x="90" y="200" width="300" height="150" rx="5"/>
  <rect class="st1" x="110" y="220" width="260" height="20" rx="2"/>
  <rect class="st2" x="110" y="250" width="200" height="10" rx="2" opacity="0.5"/>
  <rect class="st2" x="110" y="270" width="180" height="10" rx="2" opacity="0.5"/>
  <rect class="st2" x="110" y="290" width="220" height="10" rx="2" opacity="0.5"/>
  <rect class="st1" x="110" y="320" width="100" height="20" rx="5"/>
  
  <!-- Image placeholder -->
  <rect class="st5" x="420" y="200" width="300" height="200" rx="5"/>
  <circle class="st2" cx="570" cy="300" r="40" opacity="0.3"/>
  <path class="st3" d="M550,280 L590,320 M590,280 L550,320" stroke-width="3"/>
  
  <!-- Features section -->
  <rect class="st5" x="90" y="380" width="630" height="100" rx="5"/>
  <rect class="st1" x="110" y="400" width="150" height="15" rx="2"/>
  <rect class="st2" x="110" y="425" width="180" height="10" rx="2" opacity="0.5"/>
  <rect class="st2" x="110" y="445" width="150" height="10" rx="2" opacity="0.5"/>
  
  <rect class="st1" x="320" y="400" width="150" height="15" rx="2"/>
  <rect class="st2" x="320" y="425" width="180" height="10" rx="2" opacity="0.5"/>
  <rect class="st2" x="320" y="445" width="150" height="10" rx="2" opacity="0.5"/>
  
  <rect class="st1" x="530" y="400" width="150" height="15" rx="2"/>
  <rect class="st2" x="530" y="425" width="180" height="10" rx="2" opacity="0.5"/>
  <rect class="st2" x="530" y="445" width="150" height="10" rx="2" opacity="0.5"/>
  
  <!-- Decorative elements -->
  <circle class="st2" cx="750" cy="100" r="15" opacity="0.3"/>
  <circle class="st2" cx="100" cy="550" r="10" opacity="0.3"/>
  <circle class="st2" cx="700" cy="550" r="8" opacity="0.3"/>
</svg>