<?xml version="1.0" encoding="UTF-8" standalone="no"?>
<svg width="600" height="400" xmlns="http://www.w3.org/2000/svg">
  <!-- Background -->
  <rect width="600" height="400" fill="#f5f5f5" rx="10" ry="10"/>
  
  <!-- Header -->
  <rect x="20" y="20" width="560" height="60" fill="#212121" rx="5" ry="5"/>
  <circle cx="50" cy="50" r="15" fill="white"/>
  <rect x="400" y="40" width="40" height="20" fill="#424242" rx="3" ry="3"/>
  <rect x="450" y="40" width="40" height="20" fill="#424242" rx="3" ry="3"/>
  <rect x="500" y="40" width="40" height="20" fill="#424242" rx="3" ry="3"/>
  
  <!-- Hero section -->
  <rect x="20" y="100" width="560" height="180" fill="#424242" rx="5" ry="5"/>
  
  <!-- Profile pic -->
  <circle cx="300" cy="150" r="60" fill="#757575"/>
  <rect x="250" y="220" width="100" height="20" fill="white" rx="3" ry="3"/>
  <rect x="220" y="250" width="160" height="10" fill="#bdbdbd" rx="3" ry="3"/>
  
  <!-- Project grid -->
  <rect x="20" y="300" width="175" height="80" fill="white" rx="5" ry="5" stroke="#e0e0e0" stroke-width="1"/>
  <rect x="210" y="300" width="175" height="80" fill="white" rx="5" ry="5" stroke="#e0e0e0" stroke-width="1"/>
  <rect x="400" y="300" width="175" height="80" fill="white" rx="5" ry="5" stroke="#e0e0e0" stroke-width="1"/>
  
  <!-- Project thumbnails -->
  <rect x="30" y="310" width="155" height="40" fill="#bdbdbd" rx="3" ry="3"/>
  <rect x="220" y="310" width="155" height="40" fill="#bdbdbd" rx="3" ry="3"/>
  <rect x="410" y="310" width="155" height="40" fill="#bdbdbd" rx="3" ry="3"/>
  
  <!-- Project titles -->
  <rect x="30" y="360" width="80" height="10" fill="#424242" rx="3" ry="3"/>
  <rect x="220" y="360" width="80" height="10" fill="#424242" rx="3" ry="3"/>
  <rect x="410" y="360" width="80" height="10" fill="#424242" rx="3" ry="3"/>
  
  <!-- Text label -->
  <text x="300" y="395" font-family="Arial" font-size="16" fill="#424242" text-anchor="middle">Portfolio Website Template</text>
</svg>