<?xml version="1.0" encoding="UTF-8" standalone="no"?>
<svg width="600" height="400" xmlns="http://www.w3.org/2000/svg">
  <!-- Background -->
  <rect width="600" height="400" fill="#f5f7fa" rx="10" ry="10"/>
  
  <!-- Header -->
  <rect x="20" y="20" width="560" height="60" fill="#34495e" rx="5" ry="5"/>
  <!-- Logo placeholder -->
  <circle cx="50" cy="50" r="15" fill="white"/>
  <rect x="80" y="40" width="100" height="20" fill="white" rx="3" ry="3"/>
  <!-- Navigation menu -->
  <rect x="400" y="40" width="40" height="20" fill="#2c3e50" rx="3" ry="3"/>
  <rect x="450" y="40" width="40" height="20" fill="#2c3e50" rx="3" ry="3"/>
  <rect x="500" y="40" width="40" height="20" fill="#2c3e50" rx="3" ry="3"/>
  
  <!-- Hero/Search section -->
  <rect x="20" y="100" width="560" height="120" fill="#ecf0f1" rx="5" ry="5"/>
  <rect x="60" y="130" width="300" height="20" fill="#34495e" rx="3" ry="3"/>
  <rect x="60" y="160" width="480" height="40" fill="white" rx="5" ry="5" stroke="#bdc3c7" stroke-width="1"/>
  <rect x="500" y="160" width="40" height="40" fill="#27ae60" rx="0" ry="0"/>
  
  <!-- Featured properties -->
  <text x="40" y="260" font-family="Arial" font-size="18" fill="#34495e">Featured Properties</text>
  
  <!-- Property listings -->
  <rect x="20" y="280" width="180" height="100" fill="white" rx="5" ry="5" stroke="#bdc3c7" stroke-width="1"/>
  <rect x="210" y="280" width="180" height="100" fill="white" rx="5" ry="5" stroke="#bdc3c7" stroke-width="1"/>
  <rect x="400" y="280" width="180" height="100" fill="white" rx="5" ry="5" stroke="#bdc3c7" stroke-width="1"/>
  
  <!-- Property images -->
  <rect x="25" y="285" width="170" height="50" fill="#ecf0f1" rx="3" ry="3"/>
  <rect x="215" y="285" width="170" height="50" fill="#ecf0f1" rx="3" ry="3"/>
  <rect x="405" y="285" width="170" height="50" fill="#ecf0f1" rx="3" ry="3"/>
  
  <!-- Property prices -->
  <rect x="25" y="295" width="50" height="20" fill="#27ae60" rx="3" ry="3"/>
  <rect x="215" y="295" width="50" height="20" fill="#27ae60" rx="3" ry="3"/>
  <rect x="405" y="295" width="50" height="20" fill="#27ae60" rx="3" ry="3"/>
  
  <!-- Property details -->
  <rect x="25" y="345" width="100" height="15" fill="#34495e" rx="3" ry="3"/>
  <rect x="215" y="345" width="100" height="15" fill="#34495e" rx="3" ry="3"/>
  <rect x="405" y="345" width="100" height="15" fill="#34495e" rx="3" ry="3"/>
  
  <rect x="25" y="365" width="170" height="8" fill="#7f8c8d" rx="3" ry="3"/>
  <rect x="215" y="365" width="170" height="8" fill="#7f8c8d" rx="3" ry="3"/>
  <rect x="405" y="365" width="170" height="8" fill="#7f8c8d" rx="3" ry="3"/>
  
  <!-- Text label -->
  <text x="300" y="395" font-family="Arial" font-size="16" fill="#34495e" text-anchor="middle">Real Estate Website Template</text>
</svg>