<?xml version="1.0" encoding="UTF-8" standalone="no"?>
<svg width="600" height="400" xmlns="http://www.w3.org/2000/svg">
  <!-- Background -->
  <rect width="600" height="400" fill="#f9f5f0" rx="10" ry="10"/>
  
  <!-- Header -->
  <rect x="20" y="20" width="560" height="60" fill="#8b4513" rx="5" ry="5"/>
  <!-- Logo placeholder -->
  <circle cx="50" cy="50" r="15" fill="#f9f5f0"/>
  <rect x="80" y="40" width="80" height="20" fill="#f9f5f0" rx="3" ry="3"/>
  <!-- Navigation menu -->
  <rect x="400" y="40" width="40" height="20" fill="#a0522d" rx="3" ry="3"/>
  <rect x="450" y="40" width="40" height="20" fill="#a0522d" rx="3" ry="3"/>
  <rect x="500" y="40" width="40" height="20" fill="#a0522d" rx="3" ry="3"/>
  
  <!-- Hero banner -->
  <rect x="20" y="100" width="560" height="120" fill="#d2b48c" rx="5" ry="5"/>
  <rect x="60" y="130" width="180" height="30" fill="#8b4513" rx="3" ry="3"/>
  <rect x="60" y="170" width="120" height="30" fill="#8b4513" rx="5" ry="5"/>
  <!-- Food image placeholder -->
  <circle cx="450" cy="160" r="60" fill="#f5deb3"/>
  
  <!-- Menu section -->
  <text x="40" y="260" font-family="Arial" font-size="18" fill="#8b4513">Our Menu</text>
  
  <!-- Menu categories -->
  <rect x="20" y="280" width="130" height="30" fill="#f5deb3" rx="5" ry="5"/>
  <rect x="160" y="280" width="130" height="30" fill="#f5deb3" rx="5" ry="5"/>
  <rect x="300" y="280" width="130" height="30" fill="#f5deb3" rx="5" ry="5"/>
  <rect x="440" y="280" width="130" height="30" fill="#f5deb3" rx="5" ry="5"/>
  
  <!-- Menu items -->
  <rect x="20" y="320" width="270" height="60" fill="white" rx="5" ry="5" stroke="#d2b48c" stroke-width="1"/>
  <rect x="310" y="320" width="270" height="60" fill="white" rx="5" ry="5" stroke="#d2b48c" stroke-width="1"/>
  
  <!-- Food icons -->
  <circle cx="50" cy="350" r="20" fill="#f5deb3"/>
  <circle cx="340" cy="350" r="20" fill="#f5deb3"/>
  
  <!-- Menu text -->
  <rect x="80" y="330" width="150" height="15" fill="#8b4513" rx="3" ry="3"/>
  <rect x="80" y="355" width="70" height="15" fill="#d2b48c" rx="3" ry="3"/>
  <rect x="370" y="330" width="150" height="15" fill="#8b4513" rx="3" ry="3"/>
  <rect x="370" y="355" width="70" height="15" fill="#d2b48c" rx="3" ry="3"/>
  
  <!-- Text label -->
  <text x="300" y="395" font-family="Arial" font-size="16" fill="#8b4513" text-anchor="middle">Restaurant Website Template</text>
</svg>