<?xml version="1.0" encoding="UTF-8" standalone="no"?>
<svg width="600" height="400" xmlns="http://www.w3.org/2000/svg">
  <!-- Background -->
  <rect width="600" height="400" fill="#f9f9f9" rx="10" ry="10"/>
  
  <!-- Header -->
  <rect x="20" y="20" width="560" height="60" fill="#192a56" rx="5" ry="5"/>
  <!-- Logo placeholder -->
  <circle cx="50" cy="50" r="15" fill="white"/>
  <rect x="80" y="40" width="100" height="20" fill="white" rx="3" ry="3"/>
  <!-- Navigation menu -->
  <rect x="400" y="40" width="40" height="20" fill="#273c75" rx="3" ry="3"/>
  <rect x="450" y="40" width="40" height="20" fill="#273c75" rx="3" ry="3"/>
  <rect x="500" y="40" width="40" height="20" fill="#273c75" rx="3" ry="3"/>
  
  <!-- Hero section -->
  <rect x="20" y="100" width="560" height="120" fill="#f1f2f6" rx="5" ry="5"/>
  <rect x="60" y="120" width="300" height="30" fill="#192a56" rx="3" ry="3"/>
  <rect x="60" y="160" width="200" height="40" fill="#192a56" rx="5" ry="5"/>
  <!-- Decorative element -->
  <rect x="450" y="110" width="100" height="100" fill="#273c75" rx="50" ry="50"/>
  <rect x="475" y="135" width="50" height="50" fill="#f1f2f6" rx="25" ry="25"/>
  
  <!-- Services section -->
  <text x="40" y="260" font-family="Arial" font-size="18" fill="#192a56">Our Services</text>
  
  <!-- Service boxes -->
  <rect x="20" y="280" width="180" height="100" fill="white" rx="5" ry="5" stroke="#dfe4ea" stroke-width="1"/>
  <rect x="210" y="280" width="180" height="100" fill="white" rx="5" ry="5" stroke="#dfe4ea" stroke-width="1"/>
  <rect x="400" y="280" width="180" height="100" fill="white" rx="5" ry="5" stroke="#dfe4ea" stroke-width="1"/>
  
  <!-- Service icons -->
  <circle cx="50" cy="310" r="15" fill="#f1f2f6"/>
  <circle cx="240" cy="310" r="15" fill="#f1f2f6"/>
  <circle cx="430" cy="310" r="15" fill="#f1f2f6"/>
  
  <!-- Service titles -->
  <rect x="80" y="300" width="100" height="15" fill="#192a56" rx="3" ry="3"/>
  <rect x="270" y="300" width="100" height="15" fill="#192a56" rx="3" ry="3"/>
  <rect x="460" y="300" width="100" height="15" fill="#192a56" rx="3" ry="3"/>
  
  <!-- Service descriptions -->
  <rect x="35" y="330" width="150" height="8" fill="#7f8fa6" rx="3" ry="3"/>
  <rect x="35" y="345" width="150" height="8" fill="#7f8fa6" rx="3" ry="3"/>
  <rect x="35" y="360" width="150" height="8" fill="#7f8fa6" rx="3" ry="3"/>
  
  <rect x="225" y="330" width="150" height="8" fill="#7f8fa6" rx="3" ry="3"/>
  <rect x="225" y="345" width="150" height="8" fill="#7f8fa6" rx="3" ry="3"/>
  <rect x="225" y="360" width="150" height="8" fill="#7f8fa6" rx="3" ry="3"/>
  
  <rect x="415" y="330" width="150" height="8" fill="#7f8fa6" rx="3" ry="3"/>
  <rect x="415" y="345" width="150" height="8" fill="#7f8fa6" rx="3" ry="3"/>
  <rect x="415" y="360" width="150" height="8" fill="#7f8fa6" rx="3" ry="3"/>
  
  <!-- Text label -->
  <text x="300" y="395" font-family="Arial" font-size="16" fill="#192a56" text-anchor="middle">Consulting Business Website Template</text>
</svg>